# xmcd
#
# Track frame offsets:
#	183
#	14393
#	25485
#	41340
#	56175
#	68773
#	80258
#	90508
#	107728
#	123468
#	137508
#	152465
#	164665
#	172975
#
# Disc length: 2448 seconds
#
# Revision: 1
# Processed by: cddbd v1.5.2PL0 Copyright (c) Steve Scherf et al.
# Submitted via: audiograbber 1.83.01
#
DISCID=ad098e0e
DTITLE=Billie Jo Spears - Queen Of The Silver Dollar
DYEAR=1991
DGENRE=Country
TTITLE0=Crying Time
TTITLE1=Tennessee Waltz
TTITLE2=Queen Of The Silver Dollar
TTITLE3=Crystal Chandeliers
TTITLE4=57 Chevrolet
TTITLE5=Silver Threads And Golden Needles
TTITLE6=I'm Gonna Be A Country Girl Again
TTITLE7=For The Good Times
TTITLE8=Blanket On The Ground
TTITLE9=Blue Bayou
TTITLE10=It's A Heartache
TTITLE11=What I've Got In Mind
TTITLE12=Blue Blue Day
TTITLE13=All I Have To Do Is Dream
EXTD=
EXTT0=
EXTT1=
EXTT2=
EXTT3=
EXTT4=
EXTT5=
EXTT6=
EXTT7=
EXTT8=
EXTT9=
EXTT10=
EXTT11=
EXTT12=
EXTT13=
PLAYORDER=
